HIERARCHY
ROOT Hips
{
  OFFSET 5.84602e-005 68.8428 3.50346
  CHANNELS 6 Xposition Yposition Zposition Zrotation Xrotation Yrotation
  JOINT Spine
  {
    OFFSET 0 8.597 -4.6522
    CHANNELS 3 Zrotation Xrotation Yrotation
    JOINT Spine1
    {
      OFFSET 0 7.8454 0.4098
      CHANNELS 3 Zrotation Xrotation Yrotation
      JOINT Spine2
      {
        OFFSET 0 9.7078 -2.1609
        CHANNELS 3 Zrotation Xrotation Yrotation
        JOINT Neck
        {
          OFFSET 0 21.8761 -0.4549
          CHANNELS 3 Zrotation Xrotation Yrotation
          JOINT Head
          {
            OFFSET 0 12.3537 3.3602
            CHANNELS 3 Zrotation Xrotation Yrotation
            End Site
            {
              OFFSET 0.0001 18.9506 0.5657
            }
          }
        }
        JOINT LeftShoulder
        {
          OFFSET 2.2086 21.1115 7.2329
          CHANNELS 3 Zrotation Xrotation Yrotation
          JOINT LeftArm
          {
            OFFSET 13.1193 3.0282 -4.8998
            CHANNELS 3 Zrotation Xrotation Yrotation
            JOINT LeftForeArm
            {
              OFFSET 27.4081 -0.0973053 -0.2375
              CHANNELS 3 Zrotation Xrotation Yrotation
              JOINT LeftHand
              {
                OFFSET 22.8641 0.0662994 -0.1369
                CHANNELS 3 Zrotation Xrotation Yrotation
                JOINT LeftHandIndex1
                {
                  OFFSET 8.8614 0.775009 2.4612
                  CHANNELS 3 Zrotation Xrotation Yrotation
                  JOINT LeftHandIndex2
                  {
                    OFFSET 3.3146 -0.808304 0.5841
                    CHANNELS 3 Zrotation Xrotation Yrotation
                    JOINT LeftHandIndex3
                    {
                      OFFSET 2.2628 -0.552002 0.3989
                      CHANNELS 3 Zrotation Xrotation Yrotation
                      End Site
                      {
                        OFFSET 1.6102 -0.4807 0.2612
                      }
                    }
                  }
                }
                JOINT LeftHandMiddle1
                {
                  OFFSET 8.9937 0.895004 0.2143
                  CHANNELS 3 Zrotation Xrotation Yrotation
                  JOINT LeftHandMiddle2
                  {
                    OFFSET 4.0984 0.0113983 -0.0242
                    CHANNELS 3 Zrotation Xrotation Yrotation
                    JOINT LeftHandMiddle3
                    {
                      OFFSET 2.2716 0.00689697 -0.0138001
                      CHANNELS 3 Zrotation Xrotation Yrotation
                      End Site
                      {
                        OFFSET 2.0404 -0.1441 0.0027
                      }
                    }
                  }
                }
                JOINT LeftHandRing1
                {
                  OFFSET 8.5234 0.597198 -2.0164
                  CHANNELS 3 Zrotation Xrotation Yrotation
                  JOINT LeftHandRing2
                  {
                    OFFSET 3.7188 -0.188293 -0.2328
                    CHANNELS 3 Zrotation Xrotation Yrotation
                    JOINT LeftHandRing3
                    {
                      OFFSET 2.1191 -0.106598 -0.1332
                      CHANNELS 3 Zrotation Xrotation Yrotation
                      End Site
                      {
                        OFFSET 1.8737 -0.2304 -0.0886
                      }
                    }
                  }
                }
                JOINT LeftHandPinky1
                {
                  OFFSET 7.9094 -0.601089 -3.4825
                  CHANNELS 3 Zrotation Xrotation Yrotation
                  JOINT LeftHandPinky2
                  {
                    OFFSET 2.2874 -0.477005 -0.6314
                    CHANNELS 3 Zrotation Xrotation Yrotation
                    JOINT LeftHandPinky3
                    {
                      OFFSET 1.6774 -0.349396 -0.4633
                      CHANNELS 3 Zrotation Xrotation Yrotation
                      End Site
                      {
                        OFFSET 1.4888 -0.4091 -0.3416
                      }
                    }
                  }
                }
                JOINT LeftHandThumb1
                {
                  OFFSET 1.833 -1.3875 1.3896
                  CHANNELS 3 Zrotation Xrotation Yrotation
                  JOINT LeftHandThumb2
                  {
                    OFFSET 3.4129 -1.121 2.5732
                    CHANNELS 3 Zrotation Xrotation Yrotation
                    JOINT LeftHandThumb3
                    {
                      OFFSET 2.2474 -0.804199 1.6192
                      CHANNELS 3 Zrotation Xrotation Yrotation
                      End Site
                      {
                        OFFSET 1.6527 -0.5689 1.1317
                      }
                    }
                  }
                }
              }
            }
          }
        }
        JOINT RightShoulder
        {
          OFFSET -2.2086 21.1115 7.2329
          CHANNELS 3 Zrotation Xrotation Yrotation
          JOINT RightArm
          {
            OFFSET -13.1216 3.0287 -4.9007
            CHANNELS 3 Zrotation Xrotation Yrotation
            JOINT RightForeArm
            {
              OFFSET -27.4081 -0.0973053 -0.2375
              CHANNELS 3 Zrotation Xrotation Yrotation
              JOINT RightHand
              {
                OFFSET -22.8641 0.0664063 -0.1369
                CHANNELS 3 Zrotation Xrotation Yrotation
                JOINT RightHandIndex1
                {
                  OFFSET -8.8614 0.774994 2.4612
                  CHANNELS 3 Zrotation Xrotation Yrotation
                  JOINT RightHandIndex2
                  {
                    OFFSET -3.3146 -0.808304 0.5841
                    CHANNELS 3 Zrotation Xrotation Yrotation
                    JOINT RightHandIndex3
                    {
                      OFFSET -2.2628 -0.552002 0.3989
                      CHANNELS 3 Zrotation Xrotation Yrotation
                      End Site
                      {
                        OFFSET -1.6102 -0.4807 0.2612
                      }
                    }
                  }
                }
                JOINT RightHandMiddle1
                {
                  OFFSET -8.9937 0.894989 0.2143
                  CHANNELS 3 Zrotation Xrotation Yrotation
                  JOINT RightHandMiddle2
                  {
                    OFFSET -4.0984 0.0113983 -0.0242
                    CHANNELS 3 Zrotation Xrotation Yrotation
                    JOINT RightHandMiddle3
                    {
                      OFFSET -2.2716 0.00691223 -0.0138001
                      CHANNELS 3 Zrotation Xrotation Yrotation
                      End Site
                      {
                        OFFSET -2.0404 -0.1441 0.0027
                      }
                    }
                  }
                }
                JOINT RightHandRing1
                {
                  OFFSET -8.5234 0.597198 -2.0164
                  CHANNELS 3 Zrotation Xrotation Yrotation
                  JOINT RightHandRing2
                  {
                    OFFSET -3.7188 -0.188309 -0.2328
                    CHANNELS 3 Zrotation Xrotation Yrotation
                    JOINT RightHandRing3
                    {
                      OFFSET -2.1191 -0.106598 -0.1332
                      CHANNELS 3 Zrotation Xrotation Yrotation
                      End Site
                      {
                        OFFSET -1.8737 -0.2304 -0.0886
                      }
                    }
                  }
                }
                JOINT RightHandPinky1
                {
                  OFFSET -7.9094 -0.601105 -3.4825
                  CHANNELS 3 Zrotation Xrotation Yrotation
                  JOINT RightHandPinky2
                  {
                    OFFSET -2.2874 -0.477005 -0.6314
                    CHANNELS 3 Zrotation Xrotation Yrotation
                    JOINT RightHandPinky3
                    {
                      OFFSET -1.6774 -0.349396 -0.4633
                      CHANNELS 3 Zrotation Xrotation Yrotation
                      End Site
                      {
                        OFFSET -1.4888 -0.4091 -0.3416
                      }
                    }
                  }
                }
                JOINT RightHandThumb1
                {
                  OFFSET -1.833 -1.38751 1.3896
                  CHANNELS 3 Zrotation Xrotation Yrotation
                  JOINT RightHandThumb2
                  {
                    OFFSET -3.41299 -1.12099 2.5732
                    CHANNELS 3 Zrotation Xrotation Yrotation
                    JOINT RightHandThumb3
                    {
                      OFFSET -2.24741 -0.804108 1.6192
                      CHANNELS 3 Zrotation Xrotation Yrotation
                      End Site
                      {
                        OFFSET -1.6527 -0.5689 1.1317
                      }
                    }
                  }
                }
              }
            }
          }
        }
      }
    }
  }
  JOINT RightUpLeg
  {
    OFFSET -9.1966 3.8861 -0.7581
    CHANNELS 3 Zrotation Xrotation Yrotation
    JOINT RightLeg
    {
      OFFSET -0.7359 -41.0265 0
      CHANNELS 3 Zrotation Xrotation Yrotation
      JOINT RightFoot
      {
        OFFSET 0 -40.2855 0
        CHANNELS 3 Zrotation Xrotation Yrotation
        JOINT RightToeBase
        {
          OFFSET 0 -5.6122 11.7359
          CHANNELS 3 Zrotation Xrotation Yrotation
          End Site
          {
            OFFSET 0 0 7.8731
          }
        }
      }
    }
  }
  JOINT LeftUpLeg
  {
    OFFSET 9.1965 3.8864 -0.7581
    CHANNELS 3 Zrotation Xrotation Yrotation
    JOINT LeftLeg
    {
      OFFSET 0.7359 -41.0268 0
      CHANNELS 3 Zrotation Xrotation Yrotation
      JOINT LeftFoot
      {
        OFFSET 0 -40.2855 0
        CHANNELS 3 Zrotation Xrotation Yrotation
        JOINT LeftToeBase
        {
          OFFSET 0 -5.6122 11.7359
          CHANNELS 3 Zrotation Xrotation Yrotation
          End Site
          {
            OFFSET 0 0 7.8731
          }
        }
      }
    }
  }
}
MOTION
Frames:	5
Frame Time:	0.0333333
5.84602e-005 68.8428 3.50346 0 0 -0 0 0 -0 0 0 -0 0 0 -0 0 0 -0 0 0 -0 0 0 -0 0 0 -0 0 0 -0 0 0 -0 0 0 -0 0 0 -0 0 0 -0 0 0 -0 -0.0146107 -8.87603e-005 -2.63497e-007 2.99804e-018 -2.42657e-020 -1.42182e-022 0 0 -0 -0.0187562 -0.001176 5.858e-005 5.06224e-018 3.88251e-019 1.21329e-020 0 0 -0 -0.012269 -0.00324817 0.000675346 -1.74678e-018 3.88251e-019 -0 0 0 -0 0 0 -0 0 0 -0 0 0 -0 0 0 -0 0 0 -0 0 0 -0 0 0 -0 0 0 -0 0 0 -0 0 0 -0 0.0149955 -9.10982e-005 2.64101e-007 -9.69331e-018 1.21329e-020 -4.7394e-023 0 0 -0 0.0189956 -0.00119102 -5.96516e-005 -5.41541e-019 0 2.42657e-020 0 0 -0 0.0122698 -0.00324857 -0.000673756 -2.00796e-019 0 -1.94126e-019 0 0 -0 0 0 -0 0 0 -0 3.39842 1.33031 -0.0637918 -5.65207e-008 0.834868 -0.000436188 -3.39935 -2.16518 -0.0642563 -8.89002e-024 -1.18485e-023 -1.48106e-024 -3.39844 1.35642 0.0640283 -3.18788e-007 0.782166 -0.000588827 3.39931 -2.13858 0.0634662 1.1399e-023 0 -0 
1.07429 11.475 -1.239 0 30.7312 -0 -0.303685 10.0669 -0.307486 -0.564907 20.1351 -0.573403 -0.564907 20.1352 -0.573402 -2.26229e-006 6.2928e-005 2.01414e-006 -1.85689e-007 -5.55497e-010 -4.39569e-007 -8.5376 0.979411 -29.8941 -51.254 -14.2974 -65.3109 2.13709 -21.6618 -5.89102 26.8878 3.22378 2.37712 3.4802e-008 -3.50983e-007 -2.40104e-007 9.66039e-008 -2.21758e-007 -1.18217e-006 3.48021e-008 -3.50983e-007 -2.40104e-007 3.4802e-008 -3.50983e-007 -2.40104e-007 -0.0146143 -8.85415e-005 -8.48881e-007 3.48001e-008 -3.50952e-007 -2.40149e-007 3.4802e-008 -3.50983e-007 -2.40104e-007 -0.0187477 -0.00117611 5.93288e-005 3.47972e-008 -3.50944e-007 -2.40162e-007 3.4802e-008 -3.50983e-007 -2.40104e-007 -0.0122707 -0.00324771 0.000673894 3.47917e-008 -3.50958e-007 -2.40142e-007 3.4802e-008 -3.50983e-007 -2.40104e-007 9.66039e-008 -2.21758e-007 -1.18217e-006 3.48021e-008 -3.50983e-007 -2.40104e-007 8.61311 0.770323 30.2656 33.7569 -2.63001 68.1931 -4.50065 -21.5595 2.39188 -28.1212 3.37512 -1.84681 -1.55858e-006 7.05289e-007 -1.31576e-006 2.13265e-007 6.83344e-007 -4.56204e-007 2.38131e-006 4.32334e-007 -1.41954e-006 -1.55858e-006 7.05289e-007 -1.31576e-006 0.0149666 -8.82673e-005 -9.39558e-007 6.0949e-007 4.53981e-007 -2.27916e-006 -1.55858e-006 7.05289e-007 -1.31576e-006 0.0189871 -0.00118813 -6.42799e-005 6.09477e-007 4.53899e-007 -2.27918e-006 -1.55858e-006 7.05289e-007 -1.31576e-006 0.0122599 -0.00324724 -0.000678392 2.38296e-006 4.31747e-007 -1.41975e-006 -1.55858e-006 7.05289e-007 -1.31576e-006 2.13265e-007 6.83344e-007 -4.56204e-007 2.38131e-006 4.32334e-007 -1.41954e-006 -64.6486 -68.6526 -59.1262 -154.353 30.5893 156.772 29.9828 45.2713 -22.4536 -2.75814e-015 -6.36111e-015 1.49089e-016 64.7471 -68.7119 59.4858 154.481 30.57 -156.824 -29.6118 44.6869 22.4548 2.45248e-007 -2.71809e-007 7.66765e-007 
0.999589 14.9751 -0.365827 0 26.3333 -0 -0.29949 9.89005 -0.269399 -0.563855 19.7816 -0.496768 -0.563855 19.7816 -0.496767 -7.81552e-006 0.000184389 2.37271e-006 -7.78736e-008 9.58845e-006 -4.19617e-007 -8.38993 0.919333 -25.8629 -45.5928 -11.9165 -62.255 2.00653 -19.6573 -6.08238 24.5503 3.66361 3.34814 6.34313e-008 -3.54555e-007 -2.28e-007 7.95139e-016 -3.18055e-015 1.59028e-015 6.34313e-008 -3.54555e-007 -2.28e-007 6.34313e-008 -3.54555e-007 -2.28e-007 -0.0145696 -8.94518e-005 8.27391e-007 6.34283e-008 -3.54526e-007 -2.28045e-007 6.34313e-008 -3.54555e-007 -2.28e-007 -0.0187711 -0.00117818 5.89971e-005 2.05931e-006 -2.4291e-007 3.10709e-007 6.34313e-008 -3.54555e-007 -2.28e-007 -0.0122806 -0.00325019 0.000673853 6.34204e-008 -3.54531e-007 -2.28039e-007 6.34313e-008 -3.54555e-007 -2.28e-007 7.95139e-016 -3.18055e-015 1.59028e-015 6.34313e-008 -3.54555e-007 -2.28e-007 8.44509 0.736827 26.1821 30.9749 -1.57536 65.4536 -4.13247 -19.5577 2.69914 -25.6079 3.80609 -2.88845 4.77083e-015 -3.18055e-015 -3.18055e-015 4.77083e-015 -6.36111e-015 -3.18055e-015 1.59028e-015 -9.54166e-015 -6.36111e-015 4.77083e-015 -3.18055e-015 -3.18055e-015 0.0149933 -8.91676e-005 -1.42127e-006 3.18055e-015 9.54166e-015 3.18055e-015 4.77083e-015 -3.18055e-015 -3.18055e-015 0.0189868 -0.00119247 -6.06186e-005 -2.19818e-006 -2.38581e-007 -8.46707e-007 4.77083e-015 -3.18055e-015 -3.18055e-015 0.01227 -0.00324474 -0.000672423 3.18055e-015 0 -0 4.77083e-015 -3.18055e-015 -3.18055e-015 4.77083e-015 -6.36111e-015 -3.18055e-015 1.59028e-015 -9.54166e-015 -6.36111e-015 -50.7956 -63.284 -46.1493 -151.29 39.9043 156.154 23.5415 42.0496 -18.5382 -3.1148e-007 -2.31112e-007 -7.56634e-007 50.7975 -63.363 46.3677 151.423 39.8956 -156.214 -23.2757 41.5553 18.5879 -1.25989e-006 9.23373e-007 -3.02074e-006 
0.999494 14.6172 0.141871 0 24.1929 -0 -0.306227 10.3768 -0.2614 -0.577995 20.7548 -0.47738 -0.577996 20.7548 -0.47738 3.8428e-006 -1.91137e-005 -6.8622e-008 -2.91783e-008 -3.24131e-009 3.83617e-007 -8.77228 0.896121 -24.0152 -44.5258 -8.83015 -63.5872 1.88569 -19.1656 -6.68942 24.0778 4.27452 4.41799 1.80844e-006 -4.43597e-007 7.48351e-007 -1.59028e-015 -6.36111e-015 1.59028e-015 -1.80844e-006 4.43597e-007 -7.48351e-007 1.80844e-006 -4.43597e-007 7.48351e-007 -0.0145839 -9.06663e-005 4.33794e-006 -1.19271e-015 -3.18055e-015 -0 1.80844e-006 -4.43597e-007 7.48351e-007 -0.0187483 -0.00117722 6.26008e-005 -3.97569e-016 0 -3.18055e-015 1.80844e-006 -4.43597e-007 7.48351e-007 -0.0122734 -0.00324828 0.000676029 6.36111e-015 0 7.95139e-015 1.80844e-006 -4.43597e-007 7.48351e-007 -1.59028e-015 -6.36111e-015 1.59028e-015 -1.80844e-006 4.43597e-007 -7.48351e-007 8.82006 0.728362 24.3089 30.7152 -0.302636 67.2845 -4.02535 -19.0728 3.15905 -25.0512 4.41669 -3.99127 -1.31014e-006 -7.79778e-007 -1.05e-006 3.18055e-015 9.54166e-015 6.36111e-015 1.31014e-006 7.79778e-007 1.05e-006 -1.31014e-006 -7.79778e-007 -1.05e-006 0.0149511 -9.17347e-005 -3.09089e-006 -1.31218e-006 -7.79902e-007 -1.04989e-006 -1.31014e-006 -7.79778e-007 -1.05e-006 0.0189883 -0.00119013 -6.1085e-005 1.31274e-006 7.7979e-007 1.04985e-006 -1.31014e-006 -7.79778e-007 -1.05e-006 0.0122775 -0.00325278 -0.00067466 -1.31184e-006 -7.79454e-007 -1.04978e-006 -1.31014e-006 -7.79778e-007 -1.05e-006 3.18055e-015 9.54166e-015 6.36111e-015 1.31014e-006 7.79778e-007 1.05e-006 -50.503 -60.9503 -45.2748 -151.259 39.9308 156.142 21.3768 42.0297 -17.416 -5.76909e-006 8.72441e-006 -2.60483e-006 50.4934 -61.0231 45.4675 151.395 39.9208 -156.202 -21.1466 41.5736 17.4769 2.38602e-006 1.4385e-007 -2.77147e-006 
0.999398 14.2702 0.650618 0 22.0457 -0 -0.31303 10.8654 -0.253177 -0.592591 21.732 -0.457313 -0.592591 21.732 -0.457313 -1.19969e-005 6.26991e-005 3.22785e-006 -2.63874e-007 -6.88426e-009 3.35471e-007 -9.15461 0.860492 -22.1631 -43.3569 -5.92952 -65.0781 1.77068 -18.6724 -7.29382 23.5929 4.87718 5.49499 1.86088e-006 -1.69538e-006 2.18849e-006 2.05763e-006 3.91185e-007 -1.4958e-006 -1.52938e-007 -9.43243e-007 1.38488e-006 1.86088e-006 -1.69538e-006 2.18849e-006 -0.0146157 -8.75138e-005 -1.75936e-006 -1.52974e-007 -9.4342e-007 1.38476e-006 1.86088e-006 -1.69538e-006 2.18849e-006 -0.0186902 -0.00117089 5.63735e-005 -1.52972e-007 -9.43472e-007 1.38473e-006 1.86088e-006 -1.69538e-006 2.18849e-006 -0.0122444 -0.00324098 0.000671901 -2.1684e-006 -1.91596e-007 5.81399e-007 1.86088e-006 -1.69538e-006 2.18849e-006 2.05763e-006 3.91185e-007 -1.4958e-006 -1.52938e-007 -9.43243e-007 1.38488e-006 9.19549 0.707581 22.4311 30.415 0.961133 69.1215 -3.9226 -18.587 3.61684 -24.4816 5.01719 -5.10235 -1.49033e-006 -1.83145e-006 -3.6935e-006 4.77083e-015 -1.59028e-014 -3.18055e-015 5.14565e-007 -1.72044e-006 -2.73659e-006 -1.49033e-006 -1.83145e-006 -3.6935e-006 0.0150085 -9.05335e-005 -4.42541e-006 -1.48887e-006 -1.83194e-006 -3.69326e-006 -1.49033e-006 -1.83145e-006 -3.6935e-006 0.0189945 -0.00119224 -6.03193e-005 5.14699e-007 -1.7209e-006 -2.73631e-006 -1.49033e-006 -1.83145e-006 -3.6935e-006 0.0122768 -0.00324873 -0.000672717 5.14602e-007 -1.72076e-006 -2.73643e-006 -1.49033e-006 -1.83145e-006 -3.6935e-006 4.77083e-015 -1.59028e-014 -3.18055e-015 5.14565e-007 -1.72044e-006 -2.73659e-006 -50.2955 -58.6093 -44.4739 -151.229 39.9581 156.13 19.2125 41.9791 -16.2945 -4.04313e-006 4.78204e-006 5.37212e-007 50.279 -58.6755 44.6452 151.367 39.9464 -156.192 -19.0158 41.562 16.364 3.34022e-006 2.68893e-006 -3.33313e-007 
